<svg viewBox="0 0 820 287.23" xmlns="http://www.w3.org/2000/svg" role="img" aria-label="Heatmap of mean WVS misalignment by model and country." style="">
<title style="fill:rgb(0, 0, 0);stroke:none;color:rgb(0, 0, 0);stroke-width:1px;stroke-linecap:butt;stroke-linejoin:miter;opacity:1;font-family:&quot;Anthropic Sans&quot;, -apple-system, &quot;system-ui&quot;, &quot;Segoe UI&quot;, sans-serif;font-size:16px;font-weight:400;text-anchor:start;dominant-baseline:auto">WVS Misalignment by Country and Model</title>
<defs>
  <linearGradient id="lg3" x1="0" x2="1" y1="0" y2="0">
    <stop offset="0%" stop-color="#2166ac"/>
    <stop offset="50%" stop-color="#f7f7f7"/>
    <stop offset="100%" stop-color="#b2182b"/>
  </linearGradient>
</defs>

<!-- Title -->
<text x="410" y="22" text-anchor="middle" font-family="sans-serif" font-size="13" font-weight="500" fill="#2c2c2a">Misalignment by Country and Model</text>

<!-- Column headers -->
<text x="148" y="45" text-anchor="middle" font-family="sans-serif" font-size="10" fill="#5f5e5a">Nigeria</text>
<text x="213" y="45" text-anchor="middle" font-family="sans-serif" font-size="10" fill="#5f5e5a">India</text>
<text x="278" y="45" text-anchor="middle" font-family="sans-serif" font-size="10" fill="#5f5e5a">China</text>
<text x="343" y="45" text-anchor="middle" font-family="sans-serif" font-size="10" fill="#5f5e5a">Russia</text>
<text x="408" y="45" text-anchor="middle" font-family="sans-serif" font-size="10" fill="#5f5e5a">Brazil</text>
<text x="473" y="45" text-anchor="middle" font-family="sans-serif" font-size="10" fill="#5f5e5a">S. Korea</text>
<text x="538" y="45" text-anchor="middle" font-family="sans-serif" font-size="10" fill="#5f5e5a">Mexico</text>
<text x="603" y="45" text-anchor="middle" font-family="sans-serif" font-size="10" fill="#5f5e5a">Germany</text>
<text x="668" y="45" text-anchor="middle" font-family="sans-serif" font-size="10" fill="#5f5e5a">USA</text>
<text x="733" y="45" text-anchor="middle" font-family="sans-serif" font-size="10" fill="#5f5e5a">Japan</text>

<!-- ROW 1: Claude Sonnet 4.5 -->
<text x="108" y="88" text-anchor="end" font-family="sans-serif" font-size="10" fill="#2c2c2a">Claude Sonnet 4.5</text>
<rect x="115" y="55" width="65" height="46" fill="#b2182b"/>
<text x="148" y="83" text-anchor="middle" font-family="sans-serif" font-size="11" font-weight="500" fill="#fff">+2.02</text>
<rect x="180" y="55" width="65" height="46" fill="#d6604d"/>
<text x="213" y="83" text-anchor="middle" font-family="sans-serif" font-size="11" font-weight="500" fill="#fff">+1.03</text>
<rect x="245" y="55" width="65" height="46" fill="#c93c3b"/>
<text x="278" y="83" text-anchor="middle" font-family="sans-serif" font-size="11" font-weight="500" fill="#fff">+1.31</text>
<rect x="310" y="55" width="65" height="46" fill="#c73939"/>
<text x="343" y="83" text-anchor="middle" font-family="sans-serif" font-size="11" font-weight="500" fill="#fff">+1.39</text>
<rect x="375" y="55" width="65" height="46" fill="#db6852"/>
<text x="408" y="83" text-anchor="middle" font-family="sans-serif" font-size="11" font-weight="500" fill="#fff">+0.99</text>
<rect x="440" y="55" width="65" height="46" fill="#f0a487"/>
<text x="473" y="83" text-anchor="middle" font-family="sans-serif" font-size="11" font-weight="500" fill="#7f2d19">+0.62</text>
<rect x="505" y="55" width="65" height="46" fill="#f7ceba"/>
<text x="538" y="83" text-anchor="middle" font-family="sans-serif" font-size="11" font-weight="500" fill="#7f2d19">+0.31</text>
<rect x="570" y="55" width="65" height="46" fill="#e88167"/>
<text x="603" y="83" text-anchor="middle" font-family="sans-serif" font-size="11" font-weight="500" fill="#fff">+0.77</text>
<rect x="635" y="55" width="65" height="46" fill="#f5ba9e"/>
<text x="668" y="83" text-anchor="middle" font-family="sans-serif" font-size="11" font-weight="500" fill="#7f2d19">+0.53</text>
<rect x="700" y="55" width="65" height="46" fill="#d8e8f3"/>
<text x="733" y="83" text-anchor="middle" font-family="sans-serif" font-size="11" font-weight="500" fill="#0c447c">&#x2212;0.33</text>

<!-- ROW 2: GPT-5.4 -->
<text x="108" y="142" text-anchor="end" font-family="sans-serif" font-size="10" fill="#2c2c2a">GPT-5.4</text>
<rect x="115" y="109" width="65" height="46" fill="#b71d1d"/>
<text x="148" y="137" text-anchor="middle" font-family="sans-serif" font-size="11" font-weight="500" fill="#fff">+1.92</text>
<rect x="180" y="109" width="65" height="46" fill="#ec8e72"/>
<text x="213" y="137" text-anchor="middle" font-family="sans-serif" font-size="11" font-weight="500" fill="#fff">+0.76</text>
<rect x="245" y="109" width="65" height="46" fill="#c43535"/>
<text x="278" y="137" text-anchor="middle" font-family="sans-serif" font-size="11" font-weight="500" fill="#fff">+1.54</text>
<rect x="310" y="109" width="65" height="46" fill="#c43535"/>
<text x="343" y="137" text-anchor="middle" font-family="sans-serif" font-size="11" font-weight="500" fill="#fff">+1.50</text>
<rect x="375" y="109" width="65" height="46" fill="#dc6b53"/>
<text x="408" y="137" text-anchor="middle" font-family="sans-serif" font-size="11" font-weight="500" fill="#fff">+0.96</text>
<rect x="440" y="109" width="65" height="46" fill="#ed9579"/>
<text x="473" y="137" text-anchor="middle" font-family="sans-serif" font-size="11" font-weight="500" fill="#fff">+0.70</text>
<rect x="505" y="109" width="65" height="46" fill="#f4b89c"/>
<text x="538" y="137" text-anchor="middle" font-family="sans-serif" font-size="11" font-weight="500" fill="#7f2d19">+0.49</text>
<rect x="570" y="109" width="65" height="46" fill="#f0a183"/>
<text x="603" y="137" text-anchor="middle" font-family="sans-serif" font-size="11" font-weight="500" fill="#7f2d19">+0.67</text>
<rect x="635" y="109" width="65" height="46" fill="#eda78a"/>
<text x="668" y="137" text-anchor="middle" font-family="sans-serif" font-size="11" font-weight="500" fill="#fff">+0.72</text>
<rect x="700" y="109" width="65" height="46" fill="#eaf2f8"/>
<text x="733" y="137" text-anchor="middle" font-family="sans-serif" font-size="11" font-weight="500" fill="#0c447c">&#x2212;0.18</text>

<!-- ROW 3: Gemini 2.5 Flash -->
<text x="108" y="196" text-anchor="end" font-family="sans-serif" font-size="10" fill="#2c2c2a">Gemini 2.5 Flash</text>
<rect x="115" y="163" width="65" height="46" fill="#c73535"/>
<text x="148" y="191" text-anchor="middle" font-family="sans-serif" font-size="11" font-weight="500" fill="#fff">+1.63</text>
<rect x="180" y="163" width="65" height="46" fill="#f0a487"/>
<text x="213" y="191" text-anchor="middle" font-family="sans-serif" font-size="11" font-weight="500" fill="#7f2d19">+0.66</text>
<rect x="245" y="163" width="65" height="46" fill="#f0a487"/>
<text x="278" y="191" text-anchor="middle" font-family="sans-serif" font-size="11" font-weight="500" fill="#7f2d19">+0.62</text>
<rect x="310" y="163" width="65" height="46" fill="#eda073"/>
<text x="343" y="191" text-anchor="middle" font-family="sans-serif" font-size="11" font-weight="500" fill="#7f2d19">+0.69</text>
<rect x="375" y="163" width="65" height="46" fill="#ed9e70"/>
<text x="408" y="191" text-anchor="middle" font-family="sans-serif" font-size="11" font-weight="500" fill="#7f2d19">+0.71</text>
<rect x="440" y="163" width="65" height="46" fill="#fad6c2"/>
<text x="473" y="191" text-anchor="middle" font-family="sans-serif" font-size="11" font-weight="500" fill="#7f2d19">+0.30</text>
<rect x="505" y="163" width="65" height="46" fill="#d4e8f5"/>
<text x="538" y="191" text-anchor="middle" font-family="sans-serif" font-size="11" font-weight="500" fill="#0c447c">&#x2212;0.31</text>
<rect x="570" y="163" width="65" height="46" fill="#f0a487"/>
<text x="603" y="191" text-anchor="middle" font-family="sans-serif" font-size="11" font-weight="500" fill="#7f2d19">+0.62</text>
<rect x="635" y="163" width="65" height="46" fill="#f4ba9e"/>
<text x="668" y="191" text-anchor="middle" font-family="sans-serif" font-size="11" font-weight="500" fill="#7f2d19">+0.52</text>
<rect x="700" y="163" width="65" height="46" fill="#6bacd5"/>
<text x="733" y="191" text-anchor="middle" font-family="sans-serif" font-size="11" font-weight="500" fill="#fff">&#x2212;0.79</text>

<!-- X axis label -->
<text x="424" y="226" text-anchor="middle" font-family="sans-serif" font-size="10" fill="#888780">Country (ordered collectivist &#x2192; individualist by WVS)</text>

<!-- Legend gradient bar -->
<rect x="390" y="238" width="360" height="12" rx="6" fill="url(#lg3)"/>

<line x1="390" y1="236" x2="390" y2="252" stroke="#888" stroke-width="0.8"/>
<line x1="498" y1="236" x2="498" y2="252" stroke="#888" stroke-width="0.8"/>
<line x1="570" y1="236" x2="570" y2="252" stroke="#888" stroke-width="0.8"/>
<line x1="642" y1="236" x2="642" y2="252" stroke="#888" stroke-width="0.8"/>
<line x1="750" y1="236" x2="750" y2="252" stroke="#888" stroke-width="0.8"/>

<text x="390" y="262" text-anchor="middle" font-family="sans-serif" font-size="9.5" fill="#2166ac">&#x2212;2.5</text>
<text x="498" y="262" text-anchor="middle" font-family="sans-serif" font-size="9.5" fill="#888780">&#x2212;1</text>
<text x="570" y="262" text-anchor="middle" font-family="sans-serif" font-size="9.5" fill="#888780">0</text>
<text x="642" y="262" text-anchor="middle" font-family="sans-serif" font-size="9.5" fill="#888780">+1</text>
<text x="750" y="262" text-anchor="middle" font-family="sans-serif" font-size="9.5" fill="#b2182b">+2.5</text>

<text x="390" y="275" text-anchor="middle" font-family="sans-serif" font-size="9" fill="#2166ac">collectivist bias</text>
<text x="750" y="275" text-anchor="middle" font-family="sans-serif" font-size="9" fill="#b2182b">individualist bias</text>

</svg>
